<?xml version="1.0" encoding="UTF-8"?>
<svg width="62px" height="62px" viewBox="0 0 62 62" version="1.1" xmlns="http://www.w3.org/2000/svg" xmlns:xlink="http://www.w3.org/1999/xlink">
    <title>edit-text</title>
    <g id="Page-1" stroke="none" stroke-width="1" fill="none" fill-rule="evenodd">
        <g id="edit-text" fill="#FFFFFF" fill-rule="nonzero">
            <path d="M62,18.6 C62,16.12 61.07,13.64 59.21,12.09 C56.73,9.61 52.7,8.99 49.6,9.92 L49.6,0 L0,0 L0,62 L49.6,62 L49.6,34.72 L59.21,25.11 C61.07,23.56 62,21.08 62,18.6 Z M43.4,55.8 L6.2,55.8 L6.2,6.2 L43.4,6.2 L43.4,14.88 L21.7,36.58 L21.7,49.6 L34.72,49.6 L43.4,40.92 L43.4,55.8 Z M54.87,20.77 L32.24,43.4 L27.9,43.4 L27.9,39.06 L50.53,16.43 C51.77,15.19 53.63,15.19 54.87,16.43 C55.49,17.05 55.8,17.67 55.8,18.6 C55.8,19.53 55.49,20.15 54.87,20.77 L54.87,20.77 Z" id="Shape"></path>
            <polygon id="Path" points="12 12 37 12 37 19 12 19"></polygon>
            <polygon id="Path" points="12 24 22 24 22 31 12 31"></polygon>
        </g>
    </g>
</svg>
