<?xml version="1.0" encoding="UTF-8"?>
<svg width="62px" height="62px" viewBox="0 0 62 62" version="1.1" xmlns="http://www.w3.org/2000/svg" xmlns:xlink="http://www.w3.org/1999/xlink">
    <title>Shape</title>
    <g id="Page-1" stroke="none" stroke-width="1" fill="none" fill-rule="evenodd">
        <g id="edit-(1)" fill="#FFFFFF" fill-rule="nonzero">
            <path d="M62,8.111 C62,3.63133333 58.3686667,0 53.889,0 L8.111,0 C3.63133333,0 0,3.63133333 0,8.111 L0,53.8886667 C0,58.3686667 3.63133333,62 8.111,62 L53.8886667,62 C58.3686667,62 62,58.3686667 62,53.889 L62,8.111 Z M13.917,50.6273333 C12.5736667,50.9876667 11.3443333,49.7583333 11.7046667,48.415 L13.9323333,40.1116667 L22.22,48.3993333 L13.917,50.6273333 Z M49.7086667,20.431 L25.1806667,44.9593333 L16.931,36.7096667 L41.459,12.1816667 C42.6223333,11.0183333 44.508,11.0183333 45.6713333,12.1816667 L49.7086667,16.219 C50.8716667,17.382 50.8716667,19.2676667 49.7086667,20.431 Z" id="Shape"></path>
        </g>
    </g>
</svg>